# xmcd
#
# Track frame offsets:
#	150
#	10452
#	21867
#	32265
#	46522
#	59380
#	71395
#	85797
#	96942
#	106955
#	117910
#	131675
#
# Disc length: 1859 seconds
#
# Revision: 1
# Processed by: cddbd v1.5.2PL0 Copyright (c) Steve Scherf et al.
# Submitted via: audiograbber 1.83.01
#
DISCID=8f07410c
DTITLE=Canhoto (solista de cavaquinho) - Pedacinhos do céu
DYEAR=1900
DGENRE=Sertanejo
TTITLE0=Doce de coco
TTITLE1=Carioquinha
TTITLE2=Brejeiro
TTITLE3=Vê se gostas
TTITLE4=La Golondrina
TTITLE5=Poema de Amor
TTITLE6=Pedacinhos do céu
TTITLE7=Delicado
TTITLE8=Vai pro céu
TTITLE9=Tema de Lara
TTITLE10=Mágoas de Cavaquinho
TTITLE11=Segura o violão
EXTD=
EXTT0=
EXTT1=
EXTT2=
EXTT3=
EXTT4=
EXTT5=
EXTT6=
EXTT7=
EXTT8=
EXTT9=
EXTT10=
EXTT11=
PLAYORDER=
